<mxfile host="app.diagrams.net" modified="2024-04-26T14:15:12.398Z" agent="Mozilla/5.0 (Macintosh; Intel Mac OS X 10_15_7) AppleWebKit/537.36 (KHTML, like Gecko) Chrome/124.0.0.0 Safari/537.36" version="24.3.0" etag="oICePZ4mMfxmMheYSLzR" type="github">
  <diagram name="페이지-1" id="SAK369QJDVljnGtlwqHy">
    <mxGraphModel>
      <root>
        <mxCell id="0" />
        <mxCell id="1" parent="0" />
      </root>
    </mxGraphModel>
  </diagram>
</mxfile>
